<?xml version="1.0" encoding="UTF-8"?>
<!DOCTYPE svg PUBLIC "-//W3C//DTD SVG 1.1//EN" "http://www.w3.org/Graphics/SVG/1.1/DTD/svg11.dtd">
<svg xmlns="http://www.w3.org/2000/svg" version="1.1" width="350px" height="350px" style="shape-rendering:geometricPrecision; text-rendering:geometricPrecision; image-rendering:optimizeQuality; fill-rule:evenodd; clip-rule:evenodd" xmlns:xlink="http://www.w3.org/1999/xlink">
<g><path style="opacity:1" fill="#bfc9d3" d="M 175.5,6.5 C 175.573,8.02694 174.906,9.02694 173.5,9.5C 173.427,7.97306 174.094,6.97306 175.5,6.5 Z"/></g>
<g><path style="opacity:1" fill="#2c4863" d="M 187.5,10.5 C 188.239,10.631 188.906,10.4643 189.5,10C 188.289,9.10723 188.289,8.2739 189.5,7.5C 192.404,8.61437 194.404,10.6144 195.5,13.5C 194.68,15.1112 193.346,15.7778 191.5,15.5C 191.703,17.3904 191.037,18.8904 189.5,20C 190.647,22.8529 189.814,23.6862 187,22.5C 186.055,22.9054 185.388,23.572 185,24.5C 183.853,23.5419 182.853,23.8753 182,25.5C 176.853,22.2104 174.02,17.5437 173.5,11.5C 173.5,10.8333 173.5,10.1667 173.5,9.5C 174.906,9.02694 175.573,8.02694 175.5,6.5C 180.16,4.65737 184.827,4.4907 189.5,6C 188.5,6.33333 187.5,6.66667 186.5,7C 187.337,8.01127 187.67,9.17793 187.5,10.5 Z"/></g>
<g><path style="opacity:1" fill="#5e7c9d" d="M 187.5,10.5 C 190.877,16.4548 189.211,18.7881 182.5,17.5C 180.089,12.1588 181.755,9.82549 187.5,10.5 Z"/></g>
<g><path style="opacity:1" fill="#384f67" d="M 252.5,51.5 C 251.25,51.5774 250.417,52.244 250,53.5C 248.997,50.8438 247.33,49.8438 245,50.5C 243.609,48.2849 241.943,48.2849 240,50.5C 239.667,49.1667 239.333,47.8333 239,46.5C 238.764,48.1193 237.931,49.1193 236.5,49.5C 236.167,48.5 235.5,47.8333 234.5,47.5C 208.821,36.8968 185.988,41.2301 166,60.5C 161.321,66.4435 157.487,72.7768 154.5,79.5C 154.739,77.5328 154.406,75.6995 153.5,74C 154.715,71.9045 155.549,72.0712 156,74.5C 156.304,69.9476 157.471,66.1143 159.5,63C 157.865,62.4604 156.532,62.9604 155.5,64.5C 154.914,64.2907 154.414,63.9574 154,63.5C 153.028,65.3049 151.861,66.9716 150.5,68.5C 150.709,69.086 151.043,69.586 151.5,70C 149.924,71.713 148.257,73.213 146.5,74.5C 150.93,62.5608 158.263,52.7274 168.5,45C 165.667,42.8333 162.833,40.6667 160,38.5C 152.113,44.2315 144.78,43.5648 138,36.5C 132.933,25.6941 135.767,17.8608 146.5,13C 159.196,11.6883 165.696,17.5216 166,30.5C 170.196,33.262 174.196,36.262 178,39.5C 182.228,37.6363 186.394,35.6363 190.5,33.5C 189.627,31.5866 188.627,29.7533 187.5,28C 176.587,27.2849 171.92,21.7849 173.5,11.5C 174.02,17.5437 176.853,22.2104 182,25.5C 182.853,23.8753 183.853,23.5419 185,24.5C 185.388,23.572 186.055,22.9054 187,22.5C 189.814,23.6862 190.647,22.8529 189.5,20C 191.037,18.8904 191.703,17.3904 191.5,15.5C 193.346,15.7778 194.68,15.1112 195.5,13.5C 194.404,10.6144 192.404,8.61437 189.5,7.5C 188.289,8.2739 188.289,9.10723 189.5,10C 188.906,10.4643 188.239,10.631 187.5,10.5C 187.67,9.17793 187.337,8.01127 186.5,7C 187.5,6.66667 188.5,6.33333 189.5,6C 184.827,4.4907 180.16,4.65737 175.5,6.5C 176.574,5.11539 177.907,3.94873 179.5,3C 189.978,0.231547 196.312,4.06488 198.5,14.5C 197.632,17.0664 196.632,19.5664 195.5,22C 197.294,25.0877 198.961,28.2544 200.5,31.5C 217.373,30.0513 232.706,34.218 246.5,44C 249.094,46.0865 251.094,48.5865 252.5,51.5 Z"/></g>
<g><path style="opacity:1" fill="#5e7da0" d="M 148.5,20.5 C 155.154,20.6336 157.321,23.9669 155,30.5C 152.085,34.1409 148.751,34.4742 145,31.5C 143.518,26.774 144.685,23.1074 148.5,20.5 Z"/></g>
<g><path style="opacity:1" fill="#dee4f2" d="M 234.5,47.5 C 235.5,47.8333 236.167,48.5 236.5,49.5C 233.5,49.5 230.5,49.5 227.5,49.5C 227.5,49.1667 227.5,48.8333 227.5,48.5C 230.059,48.8016 232.393,48.4682 234.5,47.5 Z"/></g>
<g><path style="opacity:1" fill="#526376" d="M 227.5,48.5 C 227.5,48.8333 227.5,49.1667 227.5,49.5C 223.445,49.1758 219.445,49.5091 215.5,50.5C 216.5,51.1667 217.5,51.8333 218.5,52.5C 218.333,52.8333 218.167,53.1667 218,53.5C 213.837,52.7368 209.337,52.0701 204.5,51.5C 211.824,48.945 219.491,47.945 227.5,48.5 Z"/></g>
<g><path style="opacity:1" fill="#314b66" d="M 252.5,51.5 C 256.634,55.7997 260.968,59.9664 265.5,64C 268.554,66.1939 271.888,67.8605 275.5,69C 288.944,69.9118 302.277,71.5785 315.5,74C 326.155,77.6335 333.822,84.4668 338.5,94.5C 338.427,96.0269 339.094,97.0269 340.5,97.5C 340.557,98.609 340.89,99.609 341.5,100.5C 343.224,109.312 343.89,118.978 343.5,129.5C 340.692,145.149 332.026,156.316 317.5,163C 314.364,164.041 311.864,163.207 310,160.5C 308.826,154.497 306.826,148.83 304,143.5C 303.617,144.056 303.117,144.389 302.5,144.5C 302.056,142.887 301.056,141.72 299.5,141C 302.538,137.634 305.371,137.801 308,141.5C 309.596,142.048 310.763,141.382 311.5,139.5C 314.215,143.298 315.881,147.632 316.5,152.5C 324.559,148.435 330.225,142.101 333.5,133.5C 339.927,112.232 333.927,95.7324 315.5,84C 312.581,82.86 309.581,82.0267 306.5,81.5C 304.045,81.6284 302.045,82.6284 300.5,84.5C 298.936,82.0851 297.102,79.7518 295,77.5C 294.768,78.7375 294.268,79.7375 293.5,80.5C 272.717,81.4417 256.383,73.275 244.5,56C 243.563,55.3083 242.897,55.475 242.5,56.5C 232.546,57.2845 222.546,57.7845 212.5,58C 200.177,60.8331 190.843,67.6664 184.5,78.5C 184.695,74.8042 186.362,71.9709 189.5,70C 189,69.5 188.5,69 188,68.5C 185.918,71.1645 183.418,73.3312 180.5,75C 181.167,75.6667 181.833,76.3333 182.5,77C 180.333,79.8333 178.167,82.6667 176,85.5C 174.959,84.5289 174.126,83.5289 173.5,82.5C 178.817,67.1833 189.15,56.8499 204.5,51.5C 209.337,52.0701 213.837,52.7368 218,53.5C 218.167,53.1667 218.333,52.8333 218.5,52.5C 217.5,51.8333 216.5,51.1667 215.5,50.5C 219.445,49.5091 223.445,49.1758 227.5,49.5C 230.5,49.5 233.5,49.5 236.5,49.5C 237.931,49.1193 238.764,48.1193 239,46.5C 239.333,47.8333 239.667,49.1667 240,50.5C 241.943,48.2849 243.609,48.2849 245,50.5C 247.33,49.8438 248.997,50.8438 250,53.5C 250.417,52.244 251.25,51.5774 252.5,51.5 Z"/></g>
<g><path style="opacity:1" fill="#9dcfe0" d="M 293.5,80.5 C 292.833,81.8333 291.833,82.8333 290.5,83.5C 267.76,86.4169 251.76,77.4169 242.5,56.5C 242.897,55.475 243.563,55.3083 244.5,56C 256.383,73.275 272.717,81.4417 293.5,80.5 Z"/></g>
<g><path style="opacity:1" fill="#74b5d7" d="M 242.5,56.5 C 251.76,77.4169 267.76,86.4169 290.5,83.5C 282.283,96.0411 279.617,109.708 282.5,124.5C 268.833,127.055 257.166,123.388 247.5,113.5C 249.42,107.299 247.42,105.466 241.5,108C 237.841,110.815 235.174,114.315 233.5,118.5C 233.608,119.442 233.941,120.275 234.5,121C 237.304,121.129 239.97,120.796 242.5,120C 247.767,124.799 253.767,128.299 260.5,130.5C 246.76,135.009 232.426,137.176 217.5,137C 199.656,133.606 186.99,123.772 179.5,107.5C 177.585,97.2367 179.251,87.5701 184.5,78.5C 190.843,67.6664 200.177,60.8331 212.5,58C 222.546,57.7845 232.546,57.2845 242.5,56.5 Z"/></g>
<g><path style="opacity:1" fill="#2a4765" d="M 300.5,84.5 C 291.607,94.3774 288.107,106.044 290,119.5C 290.163,121.676 290.996,123.509 292.5,125C 297.167,127.667 301.833,130.333 306.5,133C 308.765,134.758 310.432,136.925 311.5,139.5C 310.763,141.382 309.596,142.048 308,141.5C 305.371,137.801 302.538,137.634 299.5,141C 301.056,141.72 302.056,142.887 302.5,144.5C 302.167,144.5 301.833,144.5 301.5,144.5C 297.951,144.561 294.618,143.727 291.5,142C 292.833,141.667 294.167,141.333 295.5,141C 294.584,140.722 293.918,140.222 293.5,139.5C 294.627,138.878 295.627,138.045 296.5,137C 294.833,136 293.167,135 291.5,134C 284.5,133.667 277.5,133.333 270.5,133C 266.996,132.697 263.662,131.863 260.5,130.5C 253.767,128.299 247.767,124.799 242.5,120C 239.97,120.796 237.304,121.129 234.5,121C 233.941,120.275 233.608,119.442 233.5,118.5C 235.174,114.315 237.841,110.815 241.5,108C 247.42,105.466 249.42,107.299 247.5,113.5C 257.166,123.388 268.833,127.055 282.5,124.5C 279.617,109.708 282.283,96.0411 290.5,83.5C 291.833,82.8333 292.833,81.8333 293.5,80.5C 294.268,79.7375 294.768,78.7375 295,77.5C 297.102,79.7518 298.936,82.0851 300.5,84.5 Z"/></g>
<g><path style="opacity:1" fill="#294863" d="M 211.5,67.5 C 223.844,66.4227 232.01,71.756 236,83.5C 236.766,104.399 226.933,112.566 206.5,108C 193.241,95.3783 193.241,82.7117 206.5,70C 208.315,69.2432 209.981,68.4098 211.5,67.5 Z"/></g>
<g><path style="opacity:1" fill="#edf2f4" d="M 219.5,74.5 C 228.889,75.5917 230.889,80.0917 225.5,88C 217.72,89.5531 214.553,86.3864 216,78.5C 217.376,77.2949 218.542,75.9616 219.5,74.5 Z"/></g>
<g><path style="opacity:1" fill="#6885a2" d="M 205.5,94.5 C 207.5,94.5 209.5,94.5 211.5,94.5C 212.321,100.158 210.154,101.825 205,99.5C 204.36,97.735 204.527,96.0683 205.5,94.5 Z"/></g>
<g><path style="opacity:1" fill="#c0c4cc" d="M 338.5,94.5 C 339.906,94.9731 340.573,95.9731 340.5,97.5C 339.094,97.0269 338.427,96.0269 338.5,94.5 Z"/></g>
<g><path style="opacity:1" fill="#455165" d="M 171.5,89.5 C 172.655,96.3209 172.821,103.321 172,110.5C 171.79,108.942 171.29,107.609 170.5,106.5C 169.186,100.667 169.519,95.0004 171.5,89.5 Z"/></g>
<g><path style="opacity:1" fill="#82b3d3" d="M 333.5,133.5 C 333.877,126.649 333.377,119.649 332,112.5C 329.593,103.748 324.759,96.5818 317.5,91C 311.496,89.2602 305.829,87.0935 300.5,84.5C 302.045,82.6284 304.045,81.6284 306.5,81.5C 309.581,82.0267 312.581,82.86 315.5,84C 333.927,95.7324 339.927,112.232 333.5,133.5 Z"/></g>
<g><path style="opacity:1" fill="#6285ac" d="M 300.5,84.5 C 305.829,87.0935 311.496,89.2602 317.5,91C 324.759,96.5818 329.593,103.748 332,112.5C 333.377,119.649 333.877,126.649 333.5,133.5C 330.225,142.101 324.559,148.435 316.5,152.5C 315.881,147.632 314.215,143.298 311.5,139.5C 310.432,136.925 308.765,134.758 306.5,133C 301.833,130.333 297.167,127.667 292.5,125C 290.996,123.509 290.163,121.676 290,119.5C 288.107,106.044 291.607,94.3774 300.5,84.5 Z"/></g>
<g><path style="opacity:1" fill="#9bbfd5" d="M 305.5,92.5 C 310.877,92.74 315.543,94.74 319.5,98.5C 320.348,100.409 320.682,102.409 320.5,104.5C 316.153,104.68 312.819,102.847 310.5,99C 306.139,98.5119 304.473,96.3452 305.5,92.5 Z"/></g>
<g><path style="opacity:1" fill="#778797" d="M 341.5,100.5 C 342.264,102.74 343.098,105.073 344,107.5C 344.822,115.012 344.655,122.345 343.5,129.5C 343.89,118.978 343.224,109.312 341.5,100.5 Z"/></g>
<g><path style="opacity:1" fill="#6185a9" d="M 179.5,107.5 C 186.99,123.772 199.656,133.606 217.5,137C 232.426,137.176 246.76,135.009 260.5,130.5C 263.662,131.863 266.996,132.697 270.5,133C 277.5,133.333 284.5,133.667 291.5,134C 293.167,135 294.833,136 296.5,137C 295.627,138.045 294.627,138.878 293.5,139.5C 290.384,140.075 287.217,140.409 284,140.5C 277.509,139.753 271.009,139.086 264.5,138.5C 254.786,139.876 245.12,141.709 235.5,144C 211.931,148.278 194.431,140.111 183,119.5C 181.516,115.553 180.35,111.553 179.5,107.5 Z"/></g>
<g><path style="opacity:1" fill="#304a65" d="M 184.5,78.5 C 179.251,87.5701 177.585,97.2367 179.5,107.5C 180.35,111.553 181.516,115.553 183,119.5C 194.431,140.111 211.931,148.278 235.5,144C 245.12,141.709 254.786,139.876 264.5,138.5C 271.009,139.086 277.509,139.753 284,140.5C 287.217,140.409 290.384,140.075 293.5,139.5C 293.918,140.222 294.584,140.722 295.5,141C 294.167,141.333 292.833,141.667 291.5,142C 294.618,143.727 297.951,144.561 301.5,144.5C 296.802,148.347 291.302,150.347 285,150.5C 278.372,149.255 271.705,148.255 265,147.5C 260.499,147.725 256.332,148.725 252.5,150.5C 251.883,150.389 251.383,150.056 251,149.5C 249.416,150.861 247.582,151.528 245.5,151.5C 245.5,152.833 245.5,154.167 245.5,155.5C 244.609,154.739 243.942,153.739 243.5,152.5C 242.333,152.167 241.167,151.833 240,151.5C 217.011,156.056 197.511,150.056 181.5,133.5C 174.919,125.773 171.253,116.773 170.5,106.5C 171.29,107.609 171.79,108.942 172,110.5C 172.821,103.321 172.655,96.3209 171.5,89.5C 171.41,86.8478 172.076,84.5145 173.5,82.5C 174.126,83.5289 174.959,84.5289 176,85.5C 178.167,82.6667 180.333,79.8333 182.5,77C 181.833,76.3333 181.167,75.6667 180.5,75C 183.418,73.3312 185.918,71.1645 188,68.5C 188.5,69 189,69.5 189.5,70C 186.362,71.9709 184.695,74.8042 184.5,78.5 Z"/></g>
<g><path style="opacity:1" fill="#3a4f68" d="M 154.5,79.5 C 146.553,112.899 155.219,141.065 180.5,164C 195.271,174.736 211.605,180.903 229.5,182.5C 224.959,182.052 220.626,182.719 216.5,184.5C 215.197,183.282 214.197,183.615 213.5,185.5C 212.494,185.062 212.494,184.396 213.5,183.5C 211.167,182.167 208.833,182.167 206.5,183.5C 207.498,186.028 208.331,186.028 209,183.5C 209.75,184.126 210.584,184.626 211.5,185C 211.167,185.333 210.833,185.667 210.5,186C 213.257,186.938 215.59,188.438 217.5,190.5C 196.578,187.207 178.911,177.874 164.5,162.5C 157.604,159.73 150.604,157.73 143.5,156.5C 144.274,155.853 145.274,155.52 146.5,155.5C 150.868,156.342 155.201,157.342 159.5,158.5C 160.167,158.167 160.833,157.833 161.5,157.5C 161.5,156.167 161.5,154.833 161.5,153.5C 160.5,152.833 159.5,152.167 158.5,151.5C 159.804,149.984 159.304,149.318 157,149.5C 154.188,149.817 152.021,151.15 150.5,153.5C 148.227,150.465 145.227,149.298 141.5,150C 142.696,150.654 142.696,151.154 141.5,151.5C 137.191,150.763 132.857,149.763 128.5,148.5C 120.616,150.227 112.616,150.56 104.5,149.5C 112.736,147.412 121.236,146.078 130,145.5C 138.246,146.374 146.412,147.208 154.5,148C 140.482,124.571 137.815,100.071 146.5,74.5C 148.257,73.213 149.924,71.713 151.5,70C 151.043,69.586 150.709,69.086 150.5,68.5C 151.861,66.9716 153.028,65.3049 154,63.5C 154.414,63.9574 154.914,64.2907 155.5,64.5C 156.532,62.9604 157.865,62.4604 159.5,63C 157.471,66.1143 156.304,69.9476 156,74.5C 155.549,72.0712 154.715,71.9045 153.5,74C 154.406,75.6995 154.739,77.5328 154.5,79.5 Z"/></g>
<g><path style="opacity:1" fill="#aab7c2" d="M 252.5,150.5 C 253.906,150.973 254.573,151.973 254.5,153.5C 253.094,153.027 252.427,152.027 252.5,150.5 Z"/></g>
<g><path style="opacity:1" fill="#9daab4" d="M 21.5,158.5 C 25.5773,157.318 29.5773,157.651 33.5,159.5C 29.5,159.167 25.5,158.833 21.5,158.5 Z"/></g>
<g><path style="opacity:1" fill="#304963" d="M 252.5,150.5 C 252.427,152.027 253.094,153.027 254.5,153.5C 254.5,153.833 254.5,154.167 254.5,154.5C 253.282,155.161 251.949,155.828 250.5,156.5C 251.833,156.833 253.167,157.167 254.5,157.5C 255.513,161.219 256.68,164.886 258,168.5C 258.333,168.167 258.667,167.833 259,167.5C 258.201,172.261 259.701,176.261 263.5,179.5C 267.252,196.749 267.419,214.083 264,231.5C 262.943,236.101 261.443,240.434 259.5,244.5C 257.61,244.11 256.11,245.11 255,247.5C 254,247.167 253,246.833 252,246.5C 251.667,247.5 251.333,248.5 251,249.5C 250.79,247.942 250.29,246.609 249.5,245.5C 253.561,236.254 255.895,226.587 256.5,216.5C 255.5,216.5 254.5,216.5 253.5,216.5C 228.9,218.131 210.233,229.464 197.5,250.5C 196.167,250.5 194.833,250.5 193.5,250.5C 193.531,254.597 191.531,257.097 187.5,258C 188.167,258.333 188.833,258.667 189.5,259C 187.968,259.7 186.968,260.866 186.5,262.5C 185.311,263.429 183.978,263.762 182.5,263.5C 192.399,234.101 212.399,215.601 242.5,208C 247.155,207.501 251.821,207.334 256.5,207.5C 256.512,201.129 256.012,194.796 255,188.5C 242.638,191.618 230.138,192.285 217.5,190.5C 215.59,188.438 213.257,186.938 210.5,186C 210.833,185.667 211.167,185.333 211.5,185C 210.584,184.626 209.75,184.126 209,183.5C 208.331,186.028 207.498,186.028 206.5,183.5C 208.833,182.167 211.167,182.167 213.5,183.5C 212.494,184.396 212.494,185.062 213.5,185.5C 214.197,183.615 215.197,183.282 216.5,184.5C 220.626,182.719 224.959,182.052 229.5,182.5C 237.76,182.547 245.76,181.213 253.5,178.5C 252.162,174.47 250.828,170.47 249.5,166.5C 248.445,162.725 247.112,159.058 245.5,155.5C 245.5,154.167 245.5,152.833 245.5,151.5C 247.582,151.528 249.416,150.861 251,149.5C 251.383,150.056 251.883,150.389 252.5,150.5 Z"/></g>
<g><path style="opacity:1" fill="#a0c4d5" d="M 181.5,133.5 C 197.511,150.056 217.011,156.056 240,151.5C 241.167,151.833 242.333,152.167 243.5,152.5C 243.942,153.739 244.609,154.739 245.5,155.5C 247.112,159.058 248.445,162.725 249.5,166.5C 229.162,167.601 210.829,162.101 194.5,150C 189.547,144.893 185.214,139.393 181.5,133.5 Z"/></g>
<g><path style="opacity:1" fill="#324a65" d="M 143.5,156.5 C 118.742,153.16 96.4086,158.66 76.5,173C 64.2392,183.708 56.2392,196.874 52.5,212.5C 51.7784,212.082 51.2784,211.416 51,210.5C 49.6319,211.993 49.4652,213.493 50.5,215C 49.7433,216.512 48.7433,217.846 47.5,219C 48.6406,224.75 48.8072,230.584 48,236.5C 48.3157,230.274 46.9824,224.607 44,219.5C 43.4387,218.978 42.772,218.645 42,218.5C 39.6453,220.023 37.312,220.69 35,220.5C 33.9207,218.606 32.5874,218.273 31,219.5C 30.2828,218.956 29.7828,218.289 29.5,217.5C 33.8967,217.575 38.23,217.075 42.5,216C 43.7825,213.205 43.7825,210.372 42.5,207.5C 38.3403,205.588 34.3403,203.421 30.5,201C 26.0451,200.422 21.7117,200.922 17.5,202.5C 15.5,202.167 13.5,201.833 11.5,201.5C 11.7226,197.375 13.2226,196.709 16,199.5C 19.3999,195.85 22.0666,195.85 24,199.5C 25.6477,198.283 27.481,197.45 29.5,197C 31.2407,195.917 31.9074,194.75 31.5,193.5C 36.2928,194.812 40.7928,196.812 45,199.5C 45.772,199.355 46.4387,199.022 47,198.5C 47.5725,196.359 48.4058,194.359 49.5,192.5C 50.1534,191.193 50.8201,189.86 51.5,188.5C 46.4348,175.65 37.1014,168.65 23.5,167.5C 15.3159,167.537 12.1493,171.537 14,179.5C 15.7073,181.037 17.2073,182.704 18.5,184.5C 18.4588,186.745 17.6255,187.412 16,186.5C 15.3333,187.5 15.3333,188.5 16,189.5C 17.9269,189.761 19.9269,189.761 22,189.5C 22.5,189.667 23,189.833 23.5,190C 22.1667,190.667 22.1667,191.333 23.5,192C 22.8095,193.067 22.3095,194.234 22,195.5C 20.0838,193.978 17.9171,192.978 15.5,192.5C 5.92939,187.434 2.59605,179.767 5.5,169.5C 6.90632,169.027 7.57298,168.027 7.5,166.5C 10.7166,161.417 15.3833,158.75 21.5,158.5C 25.5,158.833 29.5,159.167 33.5,159.5C 43.8931,163.052 51.7264,169.719 57,179.5C 69.2461,163.795 85.0794,153.795 104.5,149.5C 112.616,150.56 120.616,150.227 128.5,148.5C 132.857,149.763 137.191,150.763 141.5,151.5C 142.696,151.154 142.696,150.654 141.5,150C 145.227,149.298 148.227,150.465 150.5,153.5C 152.021,151.15 154.188,149.817 157,149.5C 159.304,149.318 159.804,149.984 158.5,151.5C 159.5,152.167 160.5,152.833 161.5,153.5C 161.5,154.833 161.5,156.167 161.5,157.5C 160.833,157.833 160.167,158.167 159.5,158.5C 155.201,157.342 150.868,156.342 146.5,155.5C 145.274,155.52 144.274,155.853 143.5,156.5 Z"/></g>
<g><path style="opacity:1" fill="#4d5c71" d="M 254.5,154.5 C 258.864,162.259 261.864,170.592 263.5,179.5C 259.701,176.261 258.201,172.261 259,167.5C 258.667,167.833 258.333,168.167 258,168.5C 256.68,164.886 255.513,161.219 254.5,157.5C 253.167,157.167 251.833,156.833 250.5,156.5C 251.949,155.828 253.282,155.161 254.5,154.5 Z"/></g>
<g><path style="opacity:1" fill="#b4bec4" d="M 7.5,166.5 C 7.57298,168.027 6.90632,169.027 5.5,169.5C 5.42702,167.973 6.09368,166.973 7.5,166.5 Z"/></g>
<g><path style="opacity:1" fill="#77b5d6" d="M 23.5,167.5 C 22.2347,168.479 20.9014,169.479 19.5,170.5C 33.7094,172.559 43.7094,179.892 49.5,192.5C 48.4058,194.359 47.5725,196.359 47,198.5C 46.4387,199.022 45.772,199.355 45,199.5C 40.7928,196.812 36.2928,194.812 31.5,193.5C 27.4474,190.117 23.1141,187.117 18.5,184.5C 17.2073,182.704 15.7073,181.037 14,179.5C 12.1493,171.537 15.3159,167.537 23.5,167.5 Z"/></g>
<g><path style="opacity:1" fill="#a2cfe1" d="M 23.5,167.5 C 37.1014,168.65 46.4348,175.65 51.5,188.5C 50.8201,189.86 50.1534,191.193 49.5,192.5C 43.7094,179.892 33.7094,172.559 19.5,170.5C 20.9014,169.479 22.2347,168.479 23.5,167.5 Z"/></g>
<g><path style="opacity:1" fill="#334a62" d="M 146.5,180.5 C 146.179,182.048 145.179,182.715 143.5,182.5C 143.561,184.592 144.561,186.092 146.5,187C 145.833,187.333 145.167,187.667 144.5,188C 137.51,188.027 130.677,188.861 124,190.5C 122.256,189.351 122.089,188.017 123.5,186.5C 124.851,184.981 126.351,183.648 128,182.5C 129.107,183.712 129.607,183.379 129.5,181.5C 132.526,179.981 135.859,179.315 139.5,179.5C 142.025,179.503 144.359,179.837 146.5,180.5 Z"/></g>
<g><path style="opacity:1" fill="#273f5e" d="M 112.5,187.5 C 115.041,188.649 117.541,188.649 120,187.5C 120.5,188 121,188.5 121.5,189C 120.31,191.284 118.976,193.451 117.5,195.5C 116.035,196.737 114.368,197.737 112.5,198.5C 110.208,198.244 108.041,198.577 106,199.5C 103.787,195.709 104.954,193.376 109.5,192.5C 110.086,192.709 110.586,193.043 111,193.5C 111.315,191.414 111.815,189.414 112.5,187.5 Z"/></g>
<g><path style="opacity:1" fill="#3c5068" d="M 146.5,180.5 C 155.893,181.6 163.226,185.934 168.5,193.5C 167.178,193.67 166.011,193.337 165,192.5C 164.5,193.667 163.667,194.5 162.5,195C 162.736,196.451 162.736,197.951 162.5,199.5C 148.571,187.684 133.571,186.35 117.5,195.5C 118.976,193.451 120.31,191.284 121.5,189C 121,188.5 120.5,188 120,187.5C 117.541,188.649 115.041,188.649 112.5,187.5C 117.577,184.138 123.243,182.138 129.5,181.5C 129.607,183.379 129.107,183.712 128,182.5C 126.351,183.648 124.851,184.981 123.5,186.5C 122.089,188.017 122.256,189.351 124,190.5C 130.677,188.861 137.51,188.027 144.5,188C 145.167,187.667 145.833,187.333 146.5,187C 144.561,186.092 143.561,184.592 143.5,182.5C 145.179,182.715 146.179,182.048 146.5,180.5 Z"/></g>
<g><path style="opacity:1" fill="#455a70" d="M 112.5,187.5 C 111.815,189.414 111.315,191.414 111,193.5C 110.586,193.043 110.086,192.709 109.5,192.5C 104.954,193.376 103.787,195.709 106,199.5C 108.041,198.577 110.208,198.244 112.5,198.5C 107.191,202.803 101.858,207.137 96.5,211.5C 95.487,208.572 96.8203,207.238 100.5,207.5C 99.8742,203.625 101.541,201.791 105.5,202C 103.875,201.147 103.542,200.147 104.5,199C 101.343,200.358 98.0098,200.858 94.5,200.5C 99.6564,195.012 105.656,190.679 112.5,187.5 Z"/></g>
<g><path style="opacity:1" fill="#77b4d3" d="M 29.5,217.5 C 23.3859,217.856 18.2192,215.856 14,211.5C 13.0431,207.639 14.2098,204.639 17.5,202.5C 21.7117,200.922 26.0451,200.422 30.5,201C 34.3403,203.421 38.3403,205.588 42.5,207.5C 43.7825,210.372 43.7825,213.205 42.5,216C 38.23,217.075 33.8967,217.575 29.5,217.5 Z"/></g>
<g><path style="opacity:1" fill="#667180" d="M 6.5,202.5 C 6.37832,208.344 7.04499,213.677 8.5,218.5C 5.9257,215.968 4.59237,212.801 4.5,209C 4.49671,206.516 5.16338,204.349 6.5,202.5 Z"/></g>
<g><path style="opacity:1" fill="#79848f" d="M 76.5,215.5 C 76.1551,218.198 74.8218,220.198 72.5,221.5C 73.3403,219.147 74.6736,217.147 76.5,215.5 Z"/></g>
<g><path style="opacity:1" fill="#324b65" d="M 18.5,184.5 C 23.1141,187.117 27.4474,190.117 31.5,193.5C 31.9074,194.75 31.2407,195.917 29.5,197C 27.481,197.45 25.6477,198.283 24,199.5C 22.0666,195.85 19.3999,195.85 16,199.5C 13.2226,196.709 11.7226,197.375 11.5,201.5C 13.5,201.833 15.5,202.167 17.5,202.5C 14.2098,204.639 13.0431,207.639 14,211.5C 18.2192,215.856 23.3859,217.856 29.5,217.5C 29.7828,218.289 30.2828,218.956 31,219.5C 32.5874,218.273 33.9207,218.606 35,220.5C 37.312,220.69 39.6453,220.023 42,218.5C 42.772,218.645 43.4387,218.978 44,219.5C 46.9824,224.607 48.3157,230.274 48,236.5C 48.8072,230.584 48.6406,224.75 47.5,219C 48.7433,217.846 49.7433,216.512 50.5,215C 49.4652,213.493 49.6319,211.993 51,210.5C 51.2784,211.416 51.7784,212.082 52.5,212.5C 52.634,214.292 52.3007,215.958 51.5,217.5C 48.0895,242.268 55.7562,262.935 74.5,279.5C 75.1712,280.847 75.1712,282.014 74.5,283C 78.5,283.667 78.5,284.333 74.5,285C 76.9011,285.805 76.7344,286.638 74,287.5C 73.6667,286.167 73.3333,284.833 73,283.5C 72.6667,284.167 72.3333,284.833 72,285.5C 70.307,283.396 68.1404,281.896 65.5,281C 65.8333,280.667 66.1667,280.333 66.5,280C 63.9289,278.546 61.2622,277.38 58.5,276.5C 46.674,261.689 41.0073,244.689 41.5,225.5C 31.0677,227.61 21.0677,226.443 11.5,222C 10.2899,220.961 9.2899,219.794 8.5,218.5C 7.04499,213.677 6.37832,208.344 6.5,202.5C 8.84572,198.492 11.8457,195.159 15.5,192.5C 17.9171,192.978 20.0838,193.978 22,195.5C 22.3095,194.234 22.8095,193.067 23.5,192C 22.1667,191.333 22.1667,190.667 23.5,190C 23,189.833 22.5,189.667 22,189.5C 19.9269,189.761 17.9269,189.761 16,189.5C 15.3333,188.5 15.3333,187.5 16,186.5C 17.6255,187.412 18.4588,186.745 18.5,184.5 Z"/></g>
<g><path style="opacity:1" fill="#71b4d8" d="M 253.5,216.5 C 248.784,234.241 239.117,248.741 224.5,260C 217.26,264.521 209.927,268.854 202.5,273C 198.004,274.888 193.337,276.055 188.5,276.5C 188.5,275.5 188.5,274.5 188.5,273.5C 190.142,265.231 193.142,257.564 197.5,250.5C 210.233,229.464 228.9,218.131 253.5,216.5 Z"/></g>
<g><path style="opacity:1" fill="#2a4662" d="M 168.5,193.5 C 175.986,201.952 178.32,211.619 175.5,222.5C 169.311,240.53 157.311,253.363 139.5,261C 125.261,266.191 110.594,267.857 95.5,266C 89.8394,264.762 84.506,262.928 79.5,260.5C 78.2637,257.634 79.2637,255.634 82.5,254.5C 85.4552,256.768 88.2886,258.435 91,259.5C 94.8703,259.481 99.037,259.147 103.5,258.5C 129.473,260.427 149.64,250.76 164,229.5C 167.908,221.561 168.408,213.561 165.5,205.5C 164.508,203.544 163.508,201.544 162.5,199.5C 162.736,197.951 162.736,196.451 162.5,195C 163.667,194.5 164.5,193.667 165,192.5C 166.011,193.337 167.178,193.67 168.5,193.5 Z"/></g>
<g><path style="opacity:1" fill="#2d4661" d="M 96.5,211.5 C 93.0105,214.411 89.3438,217.078 85.5,219.5C 79.4021,225.523 80.7355,228.523 89.5,228.5C 96.5172,228.504 102.184,225.837 106.5,220.5C 108.798,217.852 111.132,217.852 113.5,220.5C 114.641,222.421 114.808,224.421 114,226.5C 106.884,232.968 99.0503,238.301 90.5,242.5C 87.2432,243.462 84.2432,244.962 81.5,247C 79.7767,250.408 80.7767,252.741 84.5,254C 90.7692,255.82 97.1026,257.32 103.5,258.5C 99.037,259.147 94.8703,259.481 91,259.5C 88.2886,258.435 85.4552,256.768 82.5,254.5C 79.2637,255.634 78.2637,257.634 79.5,260.5C 72.7418,258.33 70.0752,253.663 71.5,246.5C 72.9213,241.91 75.9213,238.744 80.5,237C 72.8787,234.256 70.212,229.089 72.5,221.5C 74.8218,220.198 76.1551,218.198 76.5,215.5C 82.0907,210.034 88.0907,205.034 94.5,200.5C 98.0098,200.858 101.343,200.358 104.5,199C 103.542,200.147 103.875,201.147 105.5,202C 101.541,201.791 99.8742,203.625 100.5,207.5C 96.8203,207.238 95.487,208.572 96.5,211.5 Z"/></g>
<g><path style="opacity:1" fill="#a0c3d4" d="M 85.5,219.5 C 92.2967,221.673 99.2967,222.007 106.5,220.5C 102.184,225.837 96.5172,228.504 89.5,228.5C 80.7355,228.523 79.4021,225.523 85.5,219.5 Z"/></g>
<g><path style="opacity:1" fill="#a1c5d6" d="M 165.5,205.5 C 168.408,213.561 167.908,221.561 164,229.5C 149.64,250.76 129.473,260.427 103.5,258.5C 97.1026,257.32 90.7692,255.82 84.5,254C 80.7767,252.741 79.7767,250.408 81.5,247C 84.2432,244.962 87.2432,243.462 90.5,242.5C 92.6586,244.34 95.3253,245.507 98.5,246C 122.432,250.571 142.265,243.738 158,225.5C 161.992,219.354 164.492,212.687 165.5,205.5 Z"/></g>
<g><path style="opacity:1" fill="#a2c6d8" d="M 51.5,217.5 C 54.8167,229.798 60.9834,240.465 70,249.5C 70.2321,248.263 70.7321,247.263 71.5,246.5C 70.0752,253.663 72.7418,258.33 79.5,260.5C 84.506,262.928 89.8394,264.762 95.5,266C 110.594,267.857 125.261,266.191 139.5,261C 157.311,253.363 169.311,240.53 175.5,222.5C 173.584,249.59 159.584,267.09 133.5,275C 130.167,275.667 126.833,276.333 123.5,277C 128.921,279.104 134.588,280.438 140.5,281C 152.906,281.882 165.24,281.382 177.5,279.5C 177.263,278.209 177.596,277.209 178.5,276.5C 177.445,284.152 176.445,291.819 175.5,299.5C 144.938,306.574 115.604,303.074 87.5,289C 82.4469,286.775 78.1135,283.608 74.5,279.5C 55.7562,262.935 48.0895,242.268 51.5,217.5 Z"/></g>
<g><path style="opacity:1" fill="#628aaf" d="M 253.5,216.5 C 254.5,216.5 255.5,216.5 256.5,216.5C 255.895,226.587 253.561,236.254 249.5,245.5C 240.866,262.97 228.199,276.803 211.5,287C 203.763,290.538 196.097,294.038 188.5,297.5C 187.167,297.5 185.833,297.5 184.5,297.5C 184.864,289.21 186.198,281.21 188.5,273.5C 188.5,274.5 188.5,275.5 188.5,276.5C 193.337,276.055 198.004,274.888 202.5,273C 209.927,268.854 217.26,264.521 224.5,260C 239.117,248.741 248.784,234.241 253.5,216.5 Z"/></g>
<g><path style="opacity:1" fill="#354e68" d="M 259.5,244.5 C 251.884,264.292 239.217,280.126 221.5,292C 212.41,297.186 203.077,301.686 193.5,305.5C 193.258,308.319 193.258,311.319 193.5,314.5C 195.735,314.205 197.735,314.539 199.5,315.5C 196.61,315.278 193.943,315.945 191.5,317.5C 189.199,316.675 186.865,316.008 184.5,315.5C 184.5,312.833 184.5,310.167 184.5,307.5C 182.05,307.298 179.717,307.631 177.5,308.5C 177.631,307.761 177.464,307.094 177,306.5C 176.282,307.451 175.449,307.617 174.5,307C 175.949,305.883 177.616,305.216 179.5,305C 178.167,304.667 176.833,304.333 175.5,304C 178.498,302.656 181.498,302.489 184.5,303.5C 186.002,302.917 187.335,302.084 188.5,301C 187.316,299.855 187.316,298.688 188.5,297.5C 196.097,294.038 203.763,290.538 211.5,287C 228.199,276.803 240.866,262.97 249.5,245.5C 250.29,246.609 250.79,247.942 251,249.5C 251.333,248.5 251.667,247.5 252,246.5C 253,246.833 254,247.167 255,247.5C 256.11,245.11 257.61,244.11 259.5,244.5 Z"/></g>
<g><path style="opacity:1" fill="#324a64" d="M 182.5,263.5 C 182.384,268.674 182.384,273.84 182.5,279C 181.422,279.674 180.755,280.674 180.5,282C 180.018,288.374 178.684,294.541 176.5,300.5C 174.78,302.131 172.78,303.297 170.5,304C 170.833,304.333 171.167,304.667 171.5,305C 170.5,305.5 169.5,306 168.5,306.5C 165.625,302.701 162.458,303.034 159,307.5C 158.581,306.328 157.915,305.328 157,304.5C 155,305.833 153,307.167 151,308.5C 148.107,308.047 145.107,308.047 142,308.5C 141,307.167 140,305.833 139,304.5C 137.324,305.061 135.991,306.061 135,307.5C 134.667,307.167 134.333,306.833 134,306.5C 131.832,308.455 129.498,309.121 127,308.5C 126.536,309.094 126.369,309.761 126.5,310.5C 125.662,310.842 125.328,311.508 125.5,312.5C 124.542,312.047 123.708,311.381 123,310.5C 121.833,312.333 120.667,314.167 119.5,316C 120.138,317.707 120.138,319.54 119.5,321.5C 118.5,321.5 117.5,321.5 116.5,321.5C 117.43,317.6 117.763,313.6 117.5,309.5C 105.724,307.437 94.7239,303.437 84.5,297.5C 84.0269,296.094 83.0269,295.427 81.5,295.5C 72.6627,290.67 64.996,284.337 58.5,276.5C 61.2622,277.38 63.9289,278.546 66.5,280C 66.1667,280.333 65.8333,280.667 65.5,281C 68.1404,281.896 70.307,283.396 72,285.5C 72.3333,284.833 72.6667,284.167 73,283.5C 73.3333,284.833 73.6667,286.167 74,287.5C 76.7344,286.638 76.9011,285.805 74.5,285C 78.5,284.333 78.5,283.667 74.5,283C 75.1712,282.014 75.1712,280.847 74.5,279.5C 78.1135,283.608 82.4469,286.775 87.5,289C 115.604,303.074 144.938,306.574 175.5,299.5C 176.445,291.819 177.445,284.152 178.5,276.5C 179.09,271.831 180.423,267.497 182.5,263.5 Z"/></g>
<g><path style="opacity:1" fill="#9fafb7" d="M 81.5,295.5 C 83.0269,295.427 84.0269,296.094 84.5,297.5C 82.9731,297.573 81.9731,296.906 81.5,295.5 Z"/></g>
<g><path style="opacity:1" fill="#51799f" d="M 126.5,310.5 C 129.518,310.704 132.518,311.037 135.5,311.5C 135.5,313.833 135.5,316.167 135.5,318.5C 132.272,317.586 128.939,317.253 125.5,317.5C 125.5,315.833 125.5,314.167 125.5,312.5C 125.328,311.508 125.662,310.842 126.5,310.5 Z"/></g>
<g><path style="opacity:1" fill="#4a7499" d="M 184.5,315.5 C 180.466,315.505 176.466,315.838 172.5,316.5C 172.192,314.076 172.526,311.743 173.5,309.5C 174.736,308.754 176.07,308.421 177.5,308.5C 179.717,307.631 182.05,307.298 184.5,307.5C 184.5,310.167 184.5,312.833 184.5,315.5 Z"/></g>
<g><path style="opacity:1" fill="#495d72" d="M 199.5,315.5 C 211.62,316.129 218.953,322.295 221.5,334C 220.908,339.914 217.574,342.581 211.5,342C 198.171,342.5 184.837,342.667 171.5,342.5C 171.5,342.167 171.5,341.833 171.5,341.5C 172.833,341.5 174.167,341.5 175.5,341.5C 175.5,340.167 175.5,338.833 175.5,337.5C 189.333,339.125 203.333,339.791 217.5,339.5C 217.682,337.325 218.349,335.325 219.5,333.5C 219.473,330.091 217.973,327.757 215,326.5C 213.739,326.759 212.739,327.426 212,328.5C 211.167,327 210,325.833 208.5,325C 212.384,322.298 211.718,320.798 206.5,320.5C 206.767,323.775 205.767,324.608 203.5,323C 203.833,322.667 204.167,322.333 204.5,322C 202.754,321.529 201.087,320.862 199.5,320C 199.966,318.701 199.966,317.201 199.5,315.5 Z"/></g>
<g><path style="opacity:1" fill="#2d4865" d="M 197.5,250.5 C 193.142,257.564 190.142,265.231 188.5,273.5C 186.198,281.21 184.864,289.21 184.5,297.5C 185.833,297.5 187.167,297.5 188.5,297.5C 187.316,298.688 187.316,299.855 188.5,301C 187.335,302.084 186.002,302.917 184.5,303.5C 181.498,302.489 178.498,302.656 175.5,304C 176.833,304.333 178.167,304.667 179.5,305C 177.616,305.216 175.949,305.883 174.5,307C 175.449,307.617 176.282,307.451 177,306.5C 177.464,307.094 177.631,307.761 177.5,308.5C 176.07,308.421 174.736,308.754 173.5,309.5C 172.526,311.743 172.192,314.076 172.5,316.5C 176.466,315.838 180.466,315.505 184.5,315.5C 186.865,316.008 189.199,316.675 191.5,317.5C 193.943,315.945 196.61,315.278 199.5,315.5C 199.966,317.201 199.966,318.701 199.5,320C 201.087,320.862 202.754,321.529 204.5,322C 204.167,322.333 203.833,322.667 203.5,323C 205.767,324.608 206.767,323.775 206.5,320.5C 211.718,320.798 212.384,322.298 208.5,325C 210,325.833 211.167,327 212,328.5C 212.739,327.426 213.739,326.759 215,326.5C 217.973,327.757 219.473,330.091 219.5,333.5C 218.349,335.325 217.682,337.325 217.5,339.5C 203.333,339.791 189.333,339.125 175.5,337.5C 175.5,338.833 175.5,340.167 175.5,341.5C 174.167,341.5 172.833,341.5 171.5,341.5C 170.34,340.735 169.34,339.735 168.5,338.5C 170.61,338.706 172.61,337.873 174.5,336C 183.951,334.946 193.284,334.113 202.5,333.5C 205.898,333.82 209.232,333.487 212.5,332.5C 211.018,330.517 209.351,328.684 207.5,327C 193.818,321.297 180.151,321.464 166.5,327.5C 168.35,329.214 169.684,331.214 170.5,333.5C 168.097,333.393 166.264,334.393 165,336.5C 164.707,334.075 163.541,332.242 161.5,331C 162.784,330.316 163.951,330.483 165,331.5C 165.492,330.451 165.326,329.451 164.5,328.5C 160.575,328.002 156.575,328.002 152.5,328.5C 147.188,327.891 141.854,327.391 136.5,327C 135.556,324.281 135.223,321.448 135.5,318.5C 135.5,316.167 135.5,313.833 135.5,311.5C 132.518,311.037 129.518,310.704 126.5,310.5C 126.369,309.761 126.536,309.094 127,308.5C 129.498,309.121 131.832,308.455 134,306.5C 134.333,306.833 134.667,307.167 135,307.5C 135.991,306.061 137.324,305.061 139,304.5C 140,305.833 141,307.167 142,308.5C 145.107,308.047 148.107,308.047 151,308.5C 153,307.167 155,305.833 157,304.5C 157.915,305.328 158.581,306.328 159,307.5C 162.458,303.034 165.625,302.701 168.5,306.5C 169.5,306 170.5,305.5 171.5,305C 171.167,304.667 170.833,304.333 170.5,304C 172.78,303.297 174.78,302.131 176.5,300.5C 178.684,294.541 180.018,288.374 180.5,282C 180.755,280.674 181.422,279.674 182.5,279C 182.384,273.84 182.384,268.674 182.5,263.5C 183.978,263.762 185.311,263.429 186.5,262.5C 186.968,260.866 187.968,259.7 189.5,259C 188.833,258.667 188.167,258.333 187.5,258C 191.531,257.097 193.531,254.597 193.5,250.5C 194.833,250.5 196.167,250.5 197.5,250.5 Z M 155.5,311.5 C 162.673,309.839 165.173,312.506 163,319.5C 161.806,320.43 160.473,321.097 159,321.5C 154.263,319.952 149.43,318.786 144.5,318C 143.594,316.301 143.261,314.467 143.5,312.5C 147.702,312.817 151.702,312.483 155.5,311.5 Z"/></g>
<g><path style="opacity:1" fill="#5b86a8" d="M 202.5,333.5 C 191.833,333.5 181.167,333.5 170.5,333.5C 169.684,331.214 168.35,329.214 166.5,327.5C 180.151,321.464 193.818,321.297 207.5,327C 209.351,328.684 211.018,330.517 212.5,332.5C 209.232,333.487 205.898,333.82 202.5,333.5 Z"/></g>
<g><path style="opacity:1" fill="#73b3d5" d="M 125.5,317.5 C 128.939,317.253 132.272,317.586 135.5,318.5C 135.223,321.448 135.556,324.281 136.5,327C 141.854,327.391 147.188,327.891 152.5,328.5C 155.234,329.705 157.901,331.205 160.5,333C 162.037,334.11 162.703,335.61 162.5,337.5C 145.167,337.5 127.833,337.5 110.5,337.5C 110.178,335.278 110.845,333.444 112.5,332C 116.302,330.346 120.136,328.846 124,327.5C 125.316,324.312 125.816,320.978 125.5,317.5 Z"/></g>
<g><path style="opacity:1" fill="#344e69" d="M 125.5,312.5 C 125.5,314.167 125.5,315.833 125.5,317.5C 125.816,320.978 125.316,324.312 124,327.5C 120.136,328.846 116.302,330.346 112.5,332C 110.845,333.444 110.178,335.278 110.5,337.5C 127.833,337.5 145.167,337.5 162.5,337.5C 162.703,335.61 162.037,334.11 160.5,333C 157.901,331.205 155.234,329.705 152.5,328.5C 156.575,328.002 160.575,328.002 164.5,328.5C 165.326,329.451 165.492,330.451 165,331.5C 163.951,330.483 162.784,330.316 161.5,331C 163.541,332.242 164.707,334.075 165,336.5C 166.264,334.393 168.097,333.393 170.5,333.5C 181.167,333.5 191.833,333.5 202.5,333.5C 193.284,334.113 183.951,334.946 174.5,336C 172.61,337.873 170.61,338.706 168.5,338.5C 169.34,339.735 170.34,340.735 171.5,341.5C 171.5,341.833 171.5,342.167 171.5,342.5C 170.251,344.136 168.584,345.303 166.5,346C 147.167,346.667 127.833,346.667 108.5,346C 102.261,344.091 99.761,339.925 101,333.5C 103.993,326.672 109.16,322.672 116.5,321.5C 117.5,321.5 118.5,321.5 119.5,321.5C 120.138,319.54 120.138,317.707 119.5,316C 120.667,314.167 121.833,312.333 123,310.5C 123.708,311.381 124.542,312.047 125.5,312.5 Z"/></g>
</svg>
